<svg fill="#000000" version="1.1" id="Layer_1" xmlns:x="&amp;ns_extend;" xmlns:i="&amp;ns_ai;" xmlns:graph="&amp;ns_graphs;" xmlns="http://www.w3.org/2000/svg" xmlns:xlink="http://www.w3.org/1999/xlink" viewBox="0 0 24 24" enable-background="new 0 0 24 24" xml:space="preserve"><g id="SVGRepo_bgCarrier" stroke-width="0"></g><g id="SVGRepo_tracerCarrier" stroke-linecap="round" stroke-linejoin="round"></g><g id="SVGRepo_iconCarrier"> <metadata> <sfw xmlns="&amp;ns_sfw;"> <slices> </slices> <slicesourcebounds width="505" height="984" bottomleftorigin="true" x="0" y="-552"> </slicesourcebounds> </sfw> </metadata> <g> <g> <g> <path d="M3,8C1.3,8,0,6.7,0,5s1.3-3,3-3c0.6,0,1,0.4,1,1S3.6,4,3,4C2.4,4,2,4.4,2,5s0.4,1,1,1c0.6,0,1,0.4,1,1S3.6,8,3,8z"></path> </g> </g> <g> <g> <path d="M3,22c-1.7,0-3-1.3-3-3c0-0.6,0.4-1,1-1s1,0.4,1,1c0,0.6,0.4,1,1,1c0.6,0,1,0.4,1,1S3.6,22,3,22z"></path> </g> </g> <g> <g> <path d="M23,22H3c-0.6,0-1-0.4-1-1s0.4-1,1-1h19V8H3C2.4,8,2,7.6,2,7s0.4-1,1-1h20c0.6,0,1,0.4,1,1v14C24,21.6,23.6,22,23,22z"></path> </g> </g> <g> <g> <path d="M21,8c-0.6,0-1-0.4-1-1V4H3C2.4,4,2,3.6,2,3s0.4-1,1-1h18c0.6,0,1,0.4,1,1v4C22,7.6,21.6,8,21,8z"></path> </g> </g> <g> <g> <path d="M1,20c-0.6,0-1-0.4-1-1V5c0-0.6,0.4-1,1-1s1,0.4,1,1v14C2,19.6,1.6,20,1,20z"></path> </g> </g> <g> <g> <circle cx="18" cy="14" r="2"></circle> </g> </g> </g> </g></svg>
