<svg fill="#000000" version="1.1" id="Layer_1"
     xmlns="http://www.w3.org/2000/svg" viewBox="0 0 24 24"
     enable-background="new 0 0 24 24" xml:space="preserve"><g id="SVGRepo_bgCarrier" stroke-width="0"></g><g id="SVGRepo_tracerCarrier" stroke-linecap="round" stroke-linejoin="round"></g><g id="SVGRepo_iconCarrier"> <metadata> <sfw xmlns="&amp;ns_sfw;"> <slices> </slices> <slicesourcebounds width="505" height="984" bottomleftorigin="true" x="0" y="-984"> </slicesourcebounds> </sfw> </metadata> <g> <g> <g> <path d="M16,20H4c-0.6,0-1-0.4-1-1V1c0-0.6,0.4-1,1-1h12c0.6,0,1,0.4,1,1v18C17,19.6,16.6,20,16,20z M5,18h10V2H5V18z"></path> </g> </g> <g> <g> <path d="M20,24H8c-0.6,0-1-0.4-1-1v-4c0-0.6,0.4-1,1-1s1,0.4,1,1v3h10V6h-3c-0.6,0-1-0.4-1-1s0.4-1,1-1h4c0.6,0,1,0.4,1,1v18 C21,23.6,20.6,24,20,24z"></path> </g> </g> </g> </g></svg>
